<?xml version="1.0" encoding="UTF-8"?>
<svg id="Layer_2" data-name="Layer 2" xmlns="http://www.w3.org/2000/svg" xmlns:xlink="http://www.w3.org/1999/xlink" viewBox="0 0 386.55 213.83">
  <defs>
    <style>
      .cls-1 {
        fill: #fff;
      }

      .cls-2 {
        fill: url(#linear-gradient);
      }
    </style>
    <linearGradient id="linear-gradient" x1="-1.29" y1="106.91" x2="385.27" y2="106.91" gradientUnits="userSpaceOnUse">
      <stop offset="0" stop-color="#2e3191"/>
      <stop offset=".18" stop-color="#313090"/>
      <stop offset=".33" stop-color="#3b2d90"/>
      <stop offset=".47" stop-color="#4c298f"/>
      <stop offset=".61" stop-color="#65238f"/>
      <stop offset=".74" stop-color="#841b8e"/>
      <stop offset=".86" stop-color="#aa118c"/>
      <stop offset=".98" stop-color="#d7068b"/>
      <stop offset="1" stop-color="#df058b"/>
    </linearGradient>
  </defs>
  <g id="Layer_2-2" data-name="Layer 2">
    <g>
      <g>
        <path class="cls-1" d="M364.65,138.07l21.63,39.68c-42.32,48.63-123.65,46.64-165.02-2.82-36.89-44.1-53.54-154.69-133.1-129.08-55.88,17.99-58.74,98.82-4.09,120.11,33.17,12.92,59.43.76,80.57-25.11l22.69,39.65C125.29,246.84,9.08,208.12.5,117.53-7.54,32.7,83.33-26.21,159.62,11.76c49.19,24.49,62.29,89.03,91.88,130.46,30.28,42.4,83.99,35.45,113.16-4.16Z"/>
        <path class="cls-1" d="M248.76,77.87l-21.66-44.53c40.47-45.51,120.05-43.14,159.46,2.54l-29.14,30.87c-10.79-6.53-16.73-14.76-29.46-19.45-30.83-11.36-65.81.26-79.19,30.57Z"/>
      </g>
      <g>
        <path class="cls-2" d="M364.65,138.07l21.63,39.68c-42.32,48.63-123.65,46.64-165.02-2.82-36.89-44.1-53.54-154.69-133.1-129.08-55.88,17.99-58.74,98.82-4.09,120.11,33.17,12.92,59.43.76,80.57-25.11l22.69,39.65C125.29,246.84,9.08,208.12.5,117.53-7.54,32.7,83.33-26.21,159.62,11.76c49.19,24.49,62.29,89.03,91.88,130.46,30.28,42.4,83.99,35.45,113.16-4.16Z"/>
        <path class="cls-2" d="M248.76,77.87l-21.66-44.53c40.47-45.51,120.05-43.14,159.46,2.54l-29.14,30.87c-10.79-6.53-16.73-14.76-29.46-19.45-30.83-11.36-65.81.26-79.19,30.57Z"/>
      </g>
    </g>
  </g>
</svg>