<?xml version="1.0" encoding="UTF-8"?>
<svg id="Layer_2" data-name="Layer 2" xmlns="http://www.w3.org/2000/svg" xmlns:xlink="http://www.w3.org/1999/xlink" viewBox="0 0 525.05 86.07">
  <defs>
    <style>
      .cls-1 {
        fill: url(#linear-gradient);
      }
    </style>
    <linearGradient id="linear-gradient" x1="0" y1="43.04" x2="525.05" y2="43.04" gradientUnits="userSpaceOnUse">
      <stop offset="0" stop-color="#2e3191"/>
      <stop offset=".13" stop-color="#322f90"/>
      <stop offset=".28" stop-color="#402c90"/>
      <stop offset=".43" stop-color="#56268f"/>
      <stop offset=".59" stop-color="#761e8e"/>
      <stop offset=".75" stop-color="#9f138d"/>
      <stop offset=".92" stop-color="#d0068b"/>
      <stop offset="1" stop-color="#eb008b"/>
    </linearGradient>
  </defs>
  <g id="Layer_2-2" data-name="Layer 2">
    <g>
      <g>
        <g>
          <path d="M282.29,58.06c-.53-1-2.81-5.66-2.81-6.12v-23.25l9.77-.21,11.19-12.65h-20.96V0h-1l-14.81,10.55c.47,12.78-1.2,26.82-.2,39.45,1.6,20.23,18.65,35.62,38.96,36.08v-15.83c-8.38.1-16.32-4.96-20.15-12.18Z"/>
          <path d="M282.29,58.06c-.53-1-2.81-5.66-2.81-6.12v-23.25l9.77-.21,11.19-12.65h-20.96V0h-1l-14.81,10.55c.47,12.78-1.2,26.82-.2,39.45,1.6,20.23,18.65,35.62,38.96,36.08v-15.83c-8.38.1-16.32-4.96-20.15-12.18Z"/>
        </g>
        <g>
          <path d="M208.59,59.88c-10.7-14.99-15.44-38.34-33.24-47.19-27.6-13.74-60.47,7.57-57.56,38.26,3.1,32.77,45.14,46.78,67.58,22.78l-8.21-14.34c-7.65,9.36-17.15,13.76-29.15,9.08-19.77-7.7-18.73-36.94,1.48-43.45,28.78-9.27,34.8,30.74,48.15,46.69,14.96,17.89,44.39,18.61,59.7,1.02l-7.83-14.35c-10.55,14.33-29.98,16.84-40.94,1.51Z"/>
          <path d="M208.59,59.88c-10.7-14.99-15.44-38.34-33.24-47.19-27.6-13.74-60.47,7.57-57.56,38.26,3.1,32.77,45.14,46.78,67.58,22.78l-8.21-14.34c-7.65,9.36-17.15,13.76-29.15,9.08-19.77-7.7-18.73-36.94,1.48-43.45,28.78-9.27,34.8,30.74,48.15,46.69,14.96,17.89,44.39,18.61,59.7,1.02l-7.83-14.35c-10.55,14.33-29.98,16.84-40.94,1.51Z"/>
        </g>
        <g>
          <path d="M443.56,59.37c-7.64,9.36-17.14,13.76-29.14,9.09-3.59-1.4-6.49-3.51-8.72-6.06-10.04-11.51-6.35-32.06,10.2-37.39,10.84-3.49,18.45.01,24.44,6.58l11.33-11.33h.01s-.01-.01-.01-.01c-2.82-3.05-6.07-5.65-9.93-7.57-27.59-13.74-60.46,7.58-57.56,38.26,3.11,32.72,45.03,46.74,67.49,22.88.04-.03.07-.07.1-.1l-.1-.17-8.11-14.18Z"/>
          <path d="M443.56,59.37c-7.64,9.36-17.14,13.76-29.14,9.09-3.59-1.4-6.49-3.51-8.72-6.06-10.04-11.51-6.35-32.06,10.2-37.39,10.84-3.49,18.45.01,24.44,6.58l11.33-11.33h.01s-.01-.01-.01-.01c-2.82-3.05-6.07-5.65-9.93-7.57-27.59-13.74-60.46,7.58-57.56,38.26,3.11,32.72,45.03,46.74,67.49,22.88.04-.03.07-.07.1-.1l-.1-.17-8.11-14.18Z"/>
        </g>
        <g>
          <path d="M94.33,28.7c-5.05,6.47-13.57,11.93-18.47,18.79h15.47l24.44-24.24c-16.45-20.21-47.9-19.36-63.3,1.55-7.98,10.85-8.97,27.6-3.1,39.55,11.84,24.09,44.28,28.63,63.52,10.39l.75-1.84-6.85-13.54c-16.48,21.12-48.41,9.38-43.67-18.07,2.31-13.36,20.57-21.18,32.7-15.56.44,1.71-.71,1.97-1.49,2.97Z"/>
          <path d="M94.33,28.7c-5.05,6.47-13.57,11.93-18.47,18.79h15.47l24.44-24.24c-16.45-20.21-47.9-19.36-63.3,1.55-7.98,10.85-8.97,27.6-3.1,39.55,11.84,24.09,44.28,28.63,63.52,10.39l.75-1.84-6.85-13.54c-16.48,21.12-48.41,9.38-43.67-18.07,2.31-13.36,20.57-21.18,32.7-15.56.44,1.71-.71,1.97-1.49,2.97Z"/>
        </g>
        <g>
          <path d="M356.86,28.7c-5.05,6.47-13.57,11.93-18.47,18.79h15.47l24.44-24.24c-16.45-20.21-47.9-19.36-63.3,1.55-7.98,10.85-8.97,27.6-3.1,39.55,11.84,24.09,44.28,28.63,63.52,10.39l.75-1.84-6.85-13.54c-16.48,21.12-48.41,9.38-43.67-18.07,2.31-13.36,20.57-21.18,32.7-15.56.44,1.71-.71,1.97-1.49,2.97Z"/>
          <path d="M356.86,28.7c-5.05,6.47-13.57,11.93-18.47,18.79h15.47l24.44-24.24c-16.45-20.21-47.9-19.36-63.3,1.55-7.98,10.85-8.97,27.6-3.1,39.55,11.84,24.09,44.28,28.63,63.52,10.39l.75-1.84-6.85-13.54c-16.48,21.12-48.41,9.38-43.67-18.07,2.31-13.36,20.57-21.18,32.7-15.56.44,1.71-.71,1.97-1.49,2.97Z"/>
        </g>
        <g>
          <path d="M55.9,8.9h-25.45C19.88,8.9,0,27.71,0,38.09v47.98h15.97v-45.02c0-.81,5.34-9.21,6.5-10.38,7.37-7.44,13.62-4.57,20.44-7.45,3.23-1.36,9.56-11.66,12.99-14.33Z"/>
          <path d="M55.9,8.9h-25.45C19.88,8.9,0,27.71,0,38.09v47.98h15.97v-45.02c0-.81,5.34-9.21,6.5-10.38,7.37-7.44,13.62-4.57,20.44-7.45,3.23-1.36,9.56-11.66,12.99-14.33Z"/>
        </g>
        <g>
          <path d="M503.66,37.98h-22.03l4.6,3.59c.78.59,2.2,2.42,3.29,3.83,2.36,3.02,3.91,4.91,5.44,5.55,1.78.76,3.48.97,4.99,1.16l.12.02c2.53.31,4.72.58,7.25,3.12.46.46,2.99,4.41,3.56,5.56v25.1h14.17v-27.34c0-7.51-13.59-20.59-21.39-20.59Z"/>
          <path d="M503.66,37.98h-22.03l4.6,3.59c.78.59,2.2,2.42,3.29,3.83,2.36,3.02,3.91,4.91,5.44,5.55,1.78.76,3.48.97,4.99,1.16l.12.02c2.53.31,4.72.58,7.25,3.12.46.46,2.99,4.41,3.56,5.56v25.1h14.17v-27.34c0-7.51-13.59-20.59-21.39-20.59Z"/>
        </g>
        <g>
          <path d="M465.02,31.08v54.83h15.97V8.55c-8.33,6.42-15.97,16.09-15.97,22.53Z"/>
          <path d="M465.02,31.08v54.83h15.97V8.55c-8.33,6.42-15.97,16.09-15.97,22.53Z"/>
        </g>
        <g>
          <path d="M199.76,20.49l7.84,16.11c4.84-10.97,17.49-15.17,28.65-11.06,4.61,1.7,6.76,4.68,10.66,7.04l10.54-11.17c-14.26-16.53-43.04-17.38-57.68-.92Z"/>
          <path d="M199.76,20.49l7.84,16.11c4.84-10.97,17.49-15.17,28.65-11.06,4.61,1.7,6.76,4.68,10.66,7.04l10.54-11.17c-14.26-16.53-43.04-17.38-57.68-.92Z"/>
        </g>
      </g>
      <g>
        <g>
          <path class="cls-1" d="M282.29,58.06c-.53-1-2.81-5.66-2.81-6.12v-23.25l9.77-.21,11.19-12.65h-20.96V0h-1l-14.81,10.55c.47,12.78-1.2,26.82-.2,39.45,1.6,20.23,18.65,35.62,38.96,36.08v-15.83c-8.38.1-16.32-4.96-20.15-12.18Z"/>
          <path class="cls-1" d="M282.29,58.06c-.53-1-2.81-5.66-2.81-6.12v-23.25l9.77-.21,11.19-12.65h-20.96V0h-1l-14.81,10.55c.47,12.78-1.2,26.82-.2,39.45,1.6,20.23,18.65,35.62,38.96,36.08v-15.83c-8.38.1-16.32-4.96-20.15-12.18Z"/>
          <path class="cls-1" d="M282.29,58.06c-.53-1-2.81-5.66-2.81-6.12v-23.25l9.77-.21,11.19-12.65h-20.96V0h-1l-14.81,10.55c.47,12.78-1.2,26.82-.2,39.45,1.6,20.23,18.65,35.62,38.96,36.08v-15.83c-8.38.1-16.32-4.96-20.15-12.18Z"/>
        </g>
        <g>
          <path class="cls-1" d="M208.59,59.88c-10.7-14.99-15.44-38.34-33.24-47.19-27.6-13.74-60.47,7.57-57.56,38.26,3.1,32.77,45.14,46.78,67.58,22.78l-8.21-14.34c-7.65,9.36-17.15,13.76-29.15,9.08-19.77-7.7-18.73-36.94,1.48-43.45,28.78-9.27,34.8,30.74,48.15,46.69,14.96,17.89,44.39,18.61,59.7,1.02l-7.83-14.35c-10.55,14.33-29.98,16.84-40.94,1.51Z"/>
          <path class="cls-1" d="M208.59,59.88c-10.7-14.99-15.44-38.34-33.24-47.19-27.6-13.74-60.47,7.57-57.56,38.26,3.1,32.77,45.14,46.78,67.58,22.78l-8.21-14.34c-7.65,9.36-17.15,13.76-29.15,9.08-19.77-7.7-18.73-36.94,1.48-43.45,28.78-9.27,34.8,30.74,48.15,46.69,14.96,17.89,44.39,18.61,59.7,1.02l-7.83-14.35c-10.55,14.33-29.98,16.84-40.94,1.51Z"/>
          <path class="cls-1" d="M208.59,59.88c-10.7-14.99-15.44-38.34-33.24-47.19-27.6-13.74-60.47,7.57-57.56,38.26,3.1,32.77,45.14,46.78,67.58,22.78l-8.21-14.34c-7.65,9.36-17.15,13.76-29.15,9.08-19.77-7.7-18.73-36.94,1.48-43.45,28.78-9.27,34.8,30.74,48.15,46.69,14.96,17.89,44.39,18.61,59.7,1.02l-7.83-14.35c-10.55,14.33-29.98,16.84-40.94,1.51Z"/>
        </g>
        <g>
          <path class="cls-1" d="M443.56,59.37c-7.64,9.36-17.14,13.76-29.14,9.09-3.59-1.4-6.49-3.51-8.72-6.06-10.04-11.51-6.35-32.06,10.2-37.39,10.84-3.49,18.45.01,24.44,6.58l11.33-11.33h.01s-.01-.01-.01-.01c-2.82-3.05-6.07-5.65-9.93-7.57-27.59-13.74-60.46,7.58-57.56,38.26,3.11,32.72,45.03,46.74,67.49,22.88.04-.03.07-.07.1-.1l-.1-.17-8.11-14.18Z"/>
          <path class="cls-1" d="M443.56,59.37c-7.64,9.36-17.14,13.76-29.14,9.09-3.59-1.4-6.49-3.51-8.72-6.06-10.04-11.51-6.35-32.06,10.2-37.39,10.84-3.49,18.45.01,24.44,6.58l11.33-11.33h.01s-.01-.01-.01-.01c-2.82-3.05-6.07-5.65-9.93-7.57-27.59-13.74-60.46,7.58-57.56,38.26,3.11,32.72,45.03,46.74,67.49,22.88.04-.03.07-.07.1-.1l-.1-.17-8.11-14.18Z"/>
          <path class="cls-1" d="M443.56,59.37c-7.64,9.36-17.14,13.76-29.14,9.09-3.59-1.4-6.49-3.51-8.72-6.06-10.04-11.51-6.35-32.06,10.2-37.39,10.84-3.49,18.45.01,24.44,6.58l11.33-11.33h.01s-.01-.01-.01-.01c-2.82-3.05-6.07-5.65-9.93-7.57-27.59-13.74-60.46,7.58-57.56,38.26,3.11,32.72,45.03,46.74,67.49,22.88.04-.03.07-.07.1-.1l-.1-.17-8.11-14.18Z"/>
        </g>
        <g>
          <path class="cls-1" d="M94.33,28.7c-5.05,6.47-13.57,11.93-18.47,18.79h15.47l24.44-24.24c-16.45-20.21-47.9-19.36-63.3,1.55-7.98,10.85-8.97,27.6-3.1,39.55,11.84,24.09,44.28,28.63,63.52,10.39l.75-1.84-6.85-13.54c-16.48,21.12-48.41,9.38-43.67-18.07,2.31-13.36,20.57-21.18,32.7-15.56.44,1.71-.71,1.97-1.49,2.97Z"/>
          <path class="cls-1" d="M94.33,28.7c-5.05,6.47-13.57,11.93-18.47,18.79h15.47l24.44-24.24c-16.45-20.21-47.9-19.36-63.3,1.55-7.98,10.85-8.97,27.6-3.1,39.55,11.84,24.09,44.28,28.63,63.52,10.39l.75-1.84-6.85-13.54c-16.48,21.12-48.41,9.38-43.67-18.07,2.31-13.36,20.57-21.18,32.7-15.56.44,1.71-.71,1.97-1.49,2.97Z"/>
          <path class="cls-1" d="M94.33,28.7c-5.05,6.47-13.57,11.93-18.47,18.79h15.47l24.44-24.24c-16.45-20.21-47.9-19.36-63.3,1.55-7.98,10.85-8.97,27.6-3.1,39.55,11.84,24.09,44.28,28.63,63.52,10.39l.75-1.84-6.85-13.54c-16.48,21.12-48.41,9.38-43.67-18.07,2.31-13.36,20.57-21.18,32.7-15.56.44,1.71-.71,1.97-1.49,2.97Z"/>
        </g>
        <g>
          <path class="cls-1" d="M356.86,28.7c-5.05,6.47-13.57,11.93-18.47,18.79h15.47l24.44-24.24c-16.45-20.21-47.9-19.36-63.3,1.55-7.98,10.85-8.97,27.6-3.1,39.55,11.84,24.09,44.28,28.63,63.52,10.39l.75-1.84-6.85-13.54c-16.48,21.12-48.41,9.38-43.67-18.07,2.31-13.36,20.57-21.18,32.7-15.56.44,1.71-.71,1.97-1.49,2.97Z"/>
          <path class="cls-1" d="M356.86,28.7c-5.05,6.47-13.57,11.93-18.47,18.79h15.47l24.44-24.24c-16.45-20.21-47.9-19.36-63.3,1.55-7.98,10.85-8.97,27.6-3.1,39.55,11.84,24.09,44.28,28.63,63.52,10.39l.75-1.84-6.85-13.54c-16.48,21.12-48.41,9.38-43.67-18.07,2.31-13.36,20.57-21.18,32.7-15.56.44,1.71-.71,1.97-1.49,2.97Z"/>
          <path class="cls-1" d="M356.86,28.7c-5.05,6.47-13.57,11.93-18.47,18.79h15.47l24.44-24.24c-16.45-20.21-47.9-19.36-63.3,1.55-7.98,10.85-8.97,27.6-3.1,39.55,11.84,24.09,44.28,28.63,63.52,10.39l.75-1.84-6.85-13.54c-16.48,21.12-48.41,9.38-43.67-18.07,2.31-13.36,20.57-21.18,32.7-15.56.44,1.71-.71,1.97-1.49,2.97Z"/>
        </g>
        <g>
          <path class="cls-1" d="M55.9,8.9h-25.45C19.88,8.9,0,27.71,0,38.09v47.98h15.97v-45.02c0-.81,5.34-9.21,6.5-10.38,7.37-7.44,13.62-4.57,20.44-7.45,3.23-1.36,9.56-11.66,12.99-14.33Z"/>
          <path class="cls-1" d="M55.9,8.9h-25.45C19.88,8.9,0,27.71,0,38.09v47.98h15.97v-45.02c0-.81,5.34-9.21,6.5-10.38,7.37-7.44,13.62-4.57,20.44-7.45,3.23-1.36,9.56-11.66,12.99-14.33Z"/>
          <path class="cls-1" d="M55.9,8.9h-25.45C19.88,8.9,0,27.71,0,38.09v47.98h15.97v-45.02c0-.81,5.34-9.21,6.5-10.38,7.37-7.44,13.62-4.57,20.44-7.45,3.23-1.36,9.56-11.66,12.99-14.33Z"/>
        </g>
        <g>
          <path class="cls-1" d="M503.66,37.98h-22.03l4.6,3.59c.78.59,2.2,2.42,3.29,3.83,2.36,3.02,3.91,4.91,5.44,5.55,1.78.76,3.48.97,4.99,1.16l.12.02c2.53.31,4.72.58,7.25,3.12.46.46,2.99,4.41,3.56,5.56v25.1h14.17v-27.34c0-7.51-13.59-20.59-21.39-20.59Z"/>
          <path class="cls-1" d="M503.66,37.98h-22.03l4.6,3.59c.78.59,2.2,2.42,3.29,3.83,2.36,3.02,3.91,4.91,5.44,5.55,1.78.76,3.48.97,4.99,1.16l.12.02c2.53.31,4.72.58,7.25,3.12.46.46,2.99,4.41,3.56,5.56v25.1h14.17v-27.34c0-7.51-13.59-20.59-21.39-20.59Z"/>
          <path class="cls-1" d="M503.66,37.98h-22.03l4.6,3.59c.78.59,2.2,2.42,3.29,3.83,2.36,3.02,3.91,4.91,5.44,5.55,1.78.76,3.48.97,4.99,1.16l.12.02c2.53.31,4.72.58,7.25,3.12.46.46,2.99,4.41,3.56,5.56v25.1h14.17v-27.34c0-7.51-13.59-20.59-21.39-20.59Z"/>
        </g>
        <g>
          <path class="cls-1" d="M465.02,31.08v54.83h15.97V8.55c-8.33,6.42-15.97,16.09-15.97,22.53Z"/>
          <path class="cls-1" d="M465.02,31.08v54.83h15.97V8.55c-8.33,6.42-15.97,16.09-15.97,22.53Z"/>
          <path class="cls-1" d="M465.02,31.08v54.83h15.97V8.55c-8.33,6.42-15.97,16.09-15.97,22.53Z"/>
        </g>
        <g>
          <path class="cls-1" d="M199.76,20.49l7.84,16.11c4.84-10.97,17.49-15.17,28.65-11.06,4.61,1.7,6.76,4.68,10.66,7.04l10.54-11.17c-14.26-16.53-43.04-17.38-57.68-.92Z"/>
          <path class="cls-1" d="M199.76,20.49l7.84,16.11c4.84-10.97,17.49-15.17,28.65-11.06,4.61,1.7,6.76,4.68,10.66,7.04l10.54-11.17c-14.26-16.53-43.04-17.38-57.68-.92Z"/>
          <path class="cls-1" d="M199.76,20.49l7.84,16.11c4.84-10.97,17.49-15.17,28.65-11.06,4.61,1.7,6.76,4.68,10.66,7.04l10.54-11.17c-14.26-16.53-43.04-17.38-57.68-.92Z"/>
        </g>
      </g>
    </g>
  </g>
</svg>